<svg width="300" height="300" viewBox="0 0 300 300" fill="none" xmlns="http://www.w3.org/2000/svg">
<path d="M300 229.439H0V229.589H300V229.439Z" fill="#EBEBEB"/>
<path d="M269.941 239.096H256.934V239.246H269.941V239.096Z" fill="#EBEBEB"/>
<path d="M206.8 235.984H186.335V236.134H206.8V235.984Z" fill="#EBEBEB"/>
<path d="M264.666 233.525H237.951V233.675H264.666V233.525Z" fill="#EBEBEB"/>
<path d="M103.809 236.55H97.126V236.7H103.809V236.55Z" fill="#EBEBEB"/>
<path d="M91.7844 236.55H68.751V236.7H91.7844V236.55Z" fill="#EBEBEB"/>
<path d="M56.4012 234.017H39.7842V234.167H56.4012V234.017Z" fill="#EBEBEB"/>
<path d="M142.208 202.68H26.3486C24.4604 202.68 22.9238 201.143 22.9238 199.255V36.396C22.9238 34.5078 24.4604 32.9712 26.3486 32.9712H142.208C144.096 32.9712 145.632 34.5078 145.632 36.396V199.255C145.632 201.143 144.096 202.68 142.208 202.68ZM26.3486 33.1218C24.5426 33.1218 23.0738 34.5906 23.0738 36.3966V199.256C23.0738 201.062 24.5426 202.531 26.3486 202.531H142.208C144.013 202.531 145.482 201.062 145.482 199.256V36.396C145.482 34.5906 144.013 33.1212 142.208 33.1212L26.3486 33.1218Z" fill="#EBEBEB"/>
<path d="M271.986 202.68H156.127C154.239 202.68 152.703 201.143 152.703 199.255V36.396C152.703 34.5078 154.24 32.9712 156.127 32.9712H271.986C273.875 32.9712 275.411 34.5078 275.411 36.396V199.255C275.412 201.143 273.875 202.68 271.986 202.68ZM156.127 33.1218C154.322 33.1218 152.853 34.5906 152.853 36.3966V199.256C152.853 201.062 154.322 202.531 156.127 202.531H271.986C273.792 202.531 275.261 201.062 275.261 199.256V36.396C275.261 34.5906 273.792 33.1212 271.986 33.1212L156.127 33.1218Z" fill="#EBEBEB"/>
<path d="M129.643 120.527L129.913 112.642L125.073 111.061C124.873 108.367 124.423 105.706 123.782 103.143L127.885 100.118L125.098 92.712L120.023 93.1206C118.813 90.726 117.392 88.4478 115.799 86.3106L118.428 81.9228L113.023 76.1562L108.486 78.4794C106.442 76.7424 104.288 75.1698 101.982 73.779L102.717 68.7426L95.5184 65.4756L92.2202 69.3408C89.7074 68.5254 87.104 67.9158 84.4106 67.5114L83.1842 62.5746L75.2786 62.304L73.7174 67.1454C71.0024 67.3644 68.363 67.7946 65.8004 68.436L62.7536 64.353L55.3484 67.1196L55.7576 72.195C53.3624 73.425 51.0848 74.8458 48.9476 76.4394L44.5808 73.8114L38.7932 79.1946L41.1158 83.7522C39.38 85.7754 37.8062 87.951 36.4352 90.2574L31.4 89.502L28.1126 96.6996L31.9982 99.9984C31.1834 102.512 30.5516 105.136 30.1688 107.809L25.2104 109.055L24.9404 116.939L29.8016 118.523C30.0002 121.237 30.4514 123.877 31.0928 126.439L26.9906 129.464L29.7776 136.871L34.8524 136.461C36.062 138.856 37.4834 141.134 39.0764 143.271L36.4472 147.659L41.8526 153.426L46.3892 151.102C48.4124 152.839 50.5874 154.413 52.8932 155.804L52.1372 160.838L59.336 164.105L62.6552 160.241C65.168 161.056 67.7714 161.666 70.4654 162.07L71.6918 167.007L79.5974 167.278L81.1592 162.436C83.8736 162.217 86.513 161.787 89.0756 161.146L92.1014 165.227L99.5066 162.461L99.1178 157.387C101.514 156.157 103.77 154.735 105.928 153.142L110.295 155.771L116.082 150.387L113.76 145.829C115.496 143.806 117.07 141.631 118.441 139.324L123.476 140.08L126.763 132.882L122.877 129.583C123.693 127.07 124.323 124.468 124.707 121.774L129.643 120.527ZM76.3658 146.069C59.099 145.478 45.578 130.997 46.1696 113.73C46.7618 96.4422 61.2422 82.9224 78.509 83.514C95.7758 84.1056 109.297 98.5848 108.705 115.873C108.113 133.14 93.6326 146.661 76.3658 146.069Z" fill="#EBEBEB"/>
<path d="M264.574 94.4538L266.563 92.5968L265.768 91.0308C266.377 90.3252 266.915 89.5668 267.384 88.7856L269.122 89.0484L270.248 86.5632L268.911 85.4256C269.2 84.5466 269.409 83.6448 269.542 82.7352L271.253 82.3062L271.341 79.5822L269.668 79.0422C269.593 78.1206 269.452 77.2116 269.228 76.3104L270.636 75.2616L269.677 72.7098L267.931 72.8478C267.517 72.036 267.031 71.2524 266.473 70.4976L267.377 68.9946L265.516 67.0008L263.954 67.8C263.238 67.191 262.49 66.6528 261.709 66.1842L261.961 64.4454L259.481 63.3144L258.343 64.6518C257.459 64.3674 256.558 64.1586 255.647 64.026L255.223 62.3202L252.499 62.2218L251.954 63.8994C251.038 63.9696 250.124 64.116 249.227 64.3446L248.183 62.9328L245.627 63.8862L245.77 65.6382C244.958 66.0522 244.164 66.5382 243.419 67.0968L241.906 66.1914L239.918 68.0484L240.717 69.6198C240.104 70.3302 239.57 71.0838 239.101 71.865L237.363 71.6022L236.236 74.088L237.574 75.2256C237.284 76.1046 237.076 77.0064 236.943 77.916L235.232 78.345L235.144 81.0696L236.816 81.609C236.887 82.5258 237.033 83.4402 237.256 84.3414L235.844 85.3848L236.803 87.9366L238.555 87.8034C238.969 88.6152 239.455 89.3982 240.013 90.1542L239.108 91.6572L240.97 93.651L242.531 92.8512C243.247 93.4596 243.995 93.9984 244.777 94.467L244.519 96.2004L247 97.3314L248.142 95.9994C249.026 96.2838 249.923 96.4872 250.838 96.6246L251.262 98.3304L253.986 98.4288L254.531 96.7512C255.448 96.681 256.361 96.5346 257.258 96.306L258.302 97.7184L260.859 96.765L260.716 95.013C261.527 94.599 262.316 94.1184 263.066 93.555L264.574 94.4538ZM250.405 82.9752C248.942 81.4086 249.026 78.9516 250.592 77.4888C252.161 76.0242 254.618 76.1082 256.081 77.6754C257.543 79.242 257.459 81.699 255.891 83.1636C254.324 84.6264 251.867 84.5418 250.405 82.9752Z" fill="#EBEBEB"/>
<path d="M191.994 175.402L185.789 171.116C185.787 171.112 185.787 171.106 185.785 171.101C185.172 168.847 184.325 166.678 183.29 164.638L184.879 158.399L175.879 148.76L169.544 149.92C167.582 148.75 165.476 147.757 163.271 146.991C163.267 146.99 163.261 146.989 163.256 146.986L159.404 140.5L146.225 140.048L141.94 146.253C141.932 146.255 141.923 146.257 141.915 146.259C139.663 146.873 137.495 147.718 135.459 148.751L129.223 147.162L119.585 156.163L120.742 162.485C120.741 162.488 120.74 162.488 120.739 162.491C119.543 164.475 118.574 166.581 117.808 168.787L111.323 172.637L110.871 185.817L117.081 190.106C117.694 192.376 118.514 194.54 119.569 196.597C119.57 196.598 119.57 196.598 119.57 196.599L117.985 202.819L126.985 212.456L133.281 211.304C135.268 212.479 137.377 213.473 139.609 214.24C139.61 214.241 139.612 214.241 139.614 214.241L143.459 220.718L156.638 221.17L160.921 214.969C163.199 214.357 165.37 213.511 167.431 212.474C167.431 212.474 167.432 212.474 167.433 212.473L173.641 214.055L183.279 205.055L182.122 198.731C183.317 196.747 184.286 194.64 185.053 192.434L185.053 192.433L191.541 188.58L191.994 175.402ZM150.922 195.436C142.73 195.155 136.33 188.277 136.61 180.108C136.891 171.916 143.745 165.515 151.938 165.796C160.13 166.076 166.53 172.931 166.25 181.123C165.97 189.292 159.115 195.716 150.922 195.436Z" fill="#EBEBEB"/>
<path d="M206.129 137.972C206.115 137.972 206.1 137.972 206.086 137.972L195.696 137.616C195.264 137.602 194.87 137.368 194.65 136.997L191.852 132.286C190.365 131.746 188.899 131.066 187.482 130.259L182.978 131.083C182.553 131.163 182.119 131.017 181.824 130.701L174.729 123.103C174.434 122.788 174.321 122.344 174.427 121.925L175.56 117.479C174.871 116.071 174.295 114.567 173.844 112.997L169.326 109.877C168.97 109.632 168.765 109.222 168.779 108.791L169.135 98.4012C169.149 97.9698 169.383 97.5756 169.754 97.3554L174.474 94.5528C175.033 93.0204 175.712 91.5618 176.496 90.204L175.668 85.6842C175.591 85.26 175.734 84.8244 176.05 84.5304L183.649 77.4342C183.964 77.139 184.408 77.0262 184.827 77.1324L189.288 78.2694C190.731 77.5674 192.23 76.989 193.757 76.5468L196.875 72.0318C197.12 71.6766 197.523 71.457 197.961 71.4858L208.351 71.8422C208.783 71.8566 209.177 72.09 209.397 72.4614L212.2 77.181C213.69 77.7264 215.144 78.405 216.537 79.2042L221.069 78.3738C221.494 78.2964 221.929 78.4398 222.223 78.7554L229.319 86.355C229.614 86.6706 229.727 87.1146 229.621 87.5328L228.483 91.9956C229.186 93.4392 229.764 94.938 230.206 96.4632L234.721 99.5808C235.077 99.8256 235.282 100.235 235.268 100.667L234.912 111.058C234.898 111.489 234.664 111.883 234.293 112.103L229.572 114.907C229.012 116.439 228.334 117.897 227.552 119.253L228.379 123.775C228.457 124.199 228.313 124.634 227.998 124.928L220.399 132.023C220.084 132.318 219.64 132.432 219.222 132.325L214.781 131.193C213.318 131.9 211.81 132.478 210.288 132.915L207.173 137.426C206.935 137.768 206.545 137.972 206.129 137.972ZM196.474 135.107L205.48 135.416L208.462 131.098C208.633 130.851 208.886 130.672 209.176 130.594C210.835 130.148 212.481 129.517 214.069 128.719C214.072 128.717 214.074 128.716 214.077 128.714C214.342 128.584 214.65 128.544 214.952 128.623L219.175 129.698L225.761 123.549L224.973 119.245C224.917 118.941 224.975 118.628 225.134 118.363C226.003 116.921 226.74 115.339 227.324 113.662C227.42 113.365 227.623 113.114 227.889 112.958L232.402 110.278L232.711 101.272L228.389 98.2866C228.163 98.1306 227.994 97.905 227.907 97.6452C227.896 97.6128 227.886 97.5786 227.878 97.5438C227.426 95.889 226.797 94.263 226.009 92.7108C225.87 92.4366 225.836 92.1216 225.911 91.824L226.993 87.5772L220.843 80.9898L216.53 81.7794C216.228 81.8352 215.916 81.7782 215.653 81.621C214.153 80.7258 212.569 79.986 210.945 79.4214C210.853 79.3896 210.76 79.347 210.681 79.2984C210.505 79.1904 210.36 79.0422 210.255 78.8658L207.572 74.3484L198.567 74.0394L195.582 78.3618C195.404 78.6192 195.138 78.8004 194.836 78.873C193.17 79.3296 191.549 79.956 190.003 80.7402C189.729 80.8794 189.414 80.9142 189.117 80.838L184.872 79.7556L178.286 85.9062L179.074 90.21C179.124 90.48 179.083 90.759 178.961 91.0044C178.944 91.0392 178.924 91.0728 178.904 91.1064C178.033 92.5536 177.295 94.14 176.712 95.8218C176.613 96.1038 176.419 96.3426 176.162 96.495L171.645 99.1776L171.337 108.183L175.663 111.171C175.909 111.341 176.088 111.593 176.166 111.883C176.632 113.608 177.26 115.247 178.032 116.753C178.077 116.839 178.111 116.93 178.135 117.025C178.186 117.229 178.185 117.442 178.134 117.645L177.055 121.877L183.205 128.463L187.488 127.679C187.788 127.625 188.098 127.681 188.36 127.835C189.887 128.738 191.479 129.478 193.093 130.034C193.384 130.127 193.637 130.324 193.797 130.595L196.474 135.107ZM202.037 123.728C201.815 123.728 201.594 123.724 201.37 123.716C190.903 123.358 182.679 114.55 183.037 104.083C183.396 93.6156 192.218 85.3938 202.671 85.749C213.139 86.1078 221.363 94.9152 221.004 105.383C220.831 110.447 218.694 115.145 214.989 118.609C211.442 121.924 206.865 123.728 202.037 123.728ZM202.014 88.272C193.195 88.272 185.874 95.289 185.57 104.17C185.259 113.24 192.386 120.873 201.457 121.184C205.853 121.331 210.044 119.763 213.259 116.758C216.471 113.755 218.322 109.685 218.472 105.296C218.783 96.2256 211.656 88.5924 202.585 88.2816C202.394 88.2756 202.203 88.272 202.014 88.272Z" fill="#EBEBEB"/>
<path d="M230.064 63.1938L225.759 62.0382L224.604 57.7344L226.289 56.049L228.067 59.7306L231.748 61.509L230.064 63.1938Z" fill="#E0E0E0"/>
<path d="M230.331 60.3126C231.115 59.5284 231.115 58.2504 230.331 57.4662C229.546 56.682 228.274 56.688 227.49 57.4722L229.631 54.2604L232.503 55.7118L233.132 58.7292L230.331 60.3126Z" fill="#E0E0E0"/>
<path d="M225.949 56.3886L229.103 53.2344L233.407 54.39L234.563 58.6944L231.409 61.8486L227.105 60.6924L225.949 56.3886ZM231.676 58.9674C232.46 58.1832 232.46 56.9052 231.676 56.121C230.892 55.3368 229.62 55.3428 228.836 56.127C228.052 56.9112 228.052 58.1778 228.836 58.9614C229.62 59.7456 230.892 59.7516 231.676 58.9674Z" fill="#F0F0F0"/>
<path d="M54.1327 178.025L56.4421 177.404L57.0625 175.095L56.1583 174.191L55.2043 176.167L53.2285 177.121L54.1327 178.025Z" fill="#E0E0E0"/>
<path d="M53.9899 176.479C53.5693 176.058 53.5693 175.372 53.9899 174.951C54.4105 174.53 55.0933 174.533 55.5139 174.954L54.3649 173.23L52.8241 174.009L52.4863 175.628L53.9899 176.479Z" fill="#E0E0E0"/>
<path d="M56.3412 174.373L54.6486 172.681L52.3392 173.301L51.7188 175.611L53.4113 177.304L55.7207 176.683L56.3412 174.373ZM53.2674 175.757C52.8468 175.336 52.8468 174.65 53.2674 174.229C53.688 173.809 54.3708 173.812 54.7914 174.232C55.212 174.653 55.212 175.333 54.7914 175.753C54.3714 176.174 53.6886 176.177 53.2674 175.757Z" fill="#F0F0F0"/>
<path d="M45.8187 51.3972L47.7357 53.3142C48.2349 53.8134 49.0515 53.8134 49.5507 53.3142C50.0499 52.815 50.0499 51.9984 49.5507 51.4992L47.6337 49.5822C47.1345 49.083 46.3179 49.083 45.8187 49.5822C45.3195 50.0814 45.3195 50.8986 45.8187 51.3972Z" fill="#F0F0F0"/>
<path d="M44.4676 46.623C45.9448 46.0926 47.5462 46.7862 48.0442 48.1728C48.5422 49.5594 47.7484 51.1134 46.2712 51.6444C44.794 52.1748 43.1926 51.4812 42.6946 50.0946C42.1966 48.708 42.9904 47.154 44.4676 46.623Z" fill="#E0E0E0"/>
<path d="M42.3794 49.7746L42.6572 50.5482L48.3614 48.4995L48.0836 47.7259L42.3794 49.7746Z" fill="#F0F0F0"/>
<path d="M150 256.537C214.25 256.537 266.334 253.495 266.334 249.743C266.334 245.991 214.25 242.949 150 242.949C85.7512 242.949 33.667 245.991 33.667 249.743C33.667 253.495 85.7512 256.537 150 256.537Z" fill="#F5F5F5"/>
<path d="M52.0291 72.3876C51.4285 69.7458 51.6967 67.5216 52.8343 65.7138C53.9719 63.9072 55.8547 62.7054 58.4821 62.1078C61.1761 61.4952 63.4159 61.7466 65.2021 62.862C66.9883 63.9768 68.1775 65.8368 68.7697 68.4426C69.1999 70.3344 69.2341 71.958 68.8729 73.3134C68.5111 74.6694 67.8055 75.8208 66.7555 76.7676C65.7049 77.715 64.2817 78.3918 62.4859 78.8004C60.6607 79.2156 59.0839 79.2684 57.7555 78.9594C56.4271 78.6498 55.2481 77.9502 54.2185 76.86C53.1889 75.7704 52.4587 74.28 52.0291 72.3876ZM57.0355 71.2734C57.4069 72.9078 57.9775 74.0124 58.7473 74.5878C59.5165 75.1644 60.4237 75.3324 61.4695 75.0948C62.5441 74.8512 63.2965 74.3124 63.7261 73.4796C64.1557 72.6468 64.1653 71.3244 63.7531 69.5142C63.4069 67.9908 62.8465 66.9474 62.0719 66.3834C61.2973 65.8206 60.3841 65.6586 59.3317 65.898C58.3231 66.1272 57.5947 66.6684 57.1459 67.521C56.6971 68.3742 56.6605 69.6246 57.0355 71.2734Z" fill="#263238"/>
<path d="M71.1554 70.4082C70.7486 68.6202 71.0174 67.0086 71.9612 65.5746C72.9044 64.1406 74.4032 63.1902 76.457 62.724C78.8048 62.19 80.7332 62.4672 82.2428 63.5568C83.456 64.4346 84.2456 65.6754 84.6104 67.2798C85.0202 69.084 84.7586 70.6968 83.8238 72.1206C82.8896 73.5444 81.3662 74.4966 79.2536 74.9766C77.3696 75.405 75.737 75.2736 74.3564 74.5806C72.659 73.7208 71.5922 72.33 71.1554 70.4082ZM75.6578 69.3738C75.8954 70.4184 76.2824 71.1432 76.82 71.5482C77.357 71.9526 77.9456 72.0816 78.5858 71.9358C79.2332 71.7882 79.709 71.421 80.0126 70.833C80.3162 70.2456 80.3444 69.4068 80.0972 68.3184C79.8662 67.3026 79.4846 66.5934 78.9518 66.192C78.419 65.7906 77.8436 65.6598 77.2256 65.8008C76.5704 65.9496 76.0868 66.3252 75.7748 66.9264C75.4622 67.527 75.4232 68.343 75.6578 69.3738Z" fill="#263238"/>
<path d="M89.1505 77.1396L85.4707 60.9534L89.6773 59.9964L90.0715 61.7298C90.4873 60.8694 90.9085 60.2556 91.3357 59.8872C91.9123 59.3928 92.5981 59.0544 93.3931 58.8744C94.9609 58.5174 96.3097 58.842 97.4401 59.8464C98.5705 60.8514 99.3367 62.2368 99.7381 64.0038C100.182 65.9544 100.053 67.5492 99.3511 68.7888C98.6497 70.0278 97.5853 70.8102 96.1573 71.1348C95.4655 71.292 94.8079 71.3178 94.1833 71.2116C93.5593 71.1054 92.9701 70.8726 92.4157 70.5108L93.6883 76.1082L89.1505 77.1396ZM91.3159 65.8254C91.5265 66.753 91.8781 67.3968 92.3701 67.7574C92.8621 68.118 93.4063 68.2296 94.0027 68.0946C94.5253 67.9758 94.9147 67.6608 95.1697 67.1502C95.4247 66.639 95.4355 65.8686 95.2015 64.8378C94.9855 63.888 94.6429 63.2328 94.1737 62.8716C93.7045 62.5092 93.2047 62.3892 92.6749 62.5092C92.1013 62.64 91.6735 62.9736 91.3927 63.5088C91.1119 64.0452 91.0861 64.8168 91.3159 65.8254Z" fill="#263238"/>
<path d="M101.661 66.1794L106.026 64.7454C106.33 65.2332 106.674 65.5542 107.057 65.7078C107.44 65.8602 107.908 65.874 108.46 65.7486C109.063 65.6112 109.501 65.3766 109.774 65.0436C109.989 64.794 110.063 64.5264 109.998 64.239C109.924 63.9156 109.698 63.7038 109.32 63.6048C109.048 63.5352 108.369 63.5274 107.283 63.5808C105.66 63.6642 104.52 63.6582 103.859 63.5652C103.199 63.471 102.598 63.1962 102.057 62.739C101.516 62.2824 101.165 61.7004 101.005 60.9948C100.83 60.2226 100.903 59.5068 101.224 58.8456C101.547 58.1844 102.07 57.6264 102.795 57.1716C103.519 56.7168 104.544 56.3388 105.869 56.0376C107.268 55.7196 108.324 55.5924 109.039 55.6536C109.753 55.716 110.385 55.9206 110.932 56.268C111.48 56.616 111.987 57.1386 112.455 57.8376L108.289 59.226C108.093 58.875 107.847 58.641 107.549 58.5234C107.142 58.3674 106.688 58.3464 106.188 58.461C105.679 58.5762 105.33 58.7502 105.139 58.983C104.949 59.2158 104.882 59.4612 104.941 59.7186C105.006 60.0054 105.202 60.1884 105.53 60.2682C105.858 60.3492 106.528 60.3348 107.541 60.2286C109.074 60.0588 110.239 60.0408 111.036 60.177C111.834 60.3126 112.489 60.6162 113.002 61.0872C113.515 61.5582 113.848 62.1282 114.001 62.7978C114.154 63.4746 114.1 64.179 113.837 64.911C113.574 65.6436 113.046 66.2988 112.252 66.8778C111.459 67.4556 110.304 67.9176 108.787 68.2632C106.645 68.7504 105.05 68.7906 104.002 68.3868C102.955 67.9824 102.174 67.2468 101.661 66.1794Z" fill="#263238"/>
<path d="M116.309 51.3396L121.233 51.312L121.255 55.0938L120.347 62.6964L117.301 62.7132L116.33 55.1214L116.309 51.3396ZM116.549 63.8724L121.146 63.8466L121.169 67.911L116.573 67.9368L116.549 63.8724Z" fill="#263238"/>
<path d="M77.208 102.949C77.172 102.949 77.1354 102.942 77.0994 102.928C74.3988 101.882 72.783 100.861 71.9442 99.633C71.3346 99.7554 70.6524 99.6744 70.005 99.3666C69.3762 99.0678 68.7708 98.5452 68.3364 97.7934C67.9314 98.106 67.431 98.1912 66.8814 98.0184C66.2718 97.827 65.6376 97.3134 65.1102 96.5718C64.7748 96.8142 64.431 96.8508 64.179 96.8298C62.3952 96.6846 59.9784 93.1338 59.805 89.3496C59.7972 89.1846 59.9256 89.0436 60.0912 89.037C60.2532 89.0232 60.3972 89.157 60.4044 89.3232C60.5688 92.9142 62.8698 96.1218 64.2282 96.2322C64.4484 96.2538 64.6326 96.1848 64.7874 96.0648C63.9726 94.635 63.5496 92.5962 64.1736 90.4176C64.6896 88.6146 65.1456 87.9096 65.6928 88.0404C66.7266 88.2978 66.591 92.2236 66.0432 94.8132C65.919 95.4006 65.7402 95.8218 65.5362 96.123C66.0096 96.822 66.5706 97.2924 67.062 97.4472C67.5012 97.5852 67.8264 97.4682 68.0664 97.2396C67.5948 96.078 67.497 94.4952 68.1372 92.4762C68.9796 89.8188 69.3186 89.7468 69.5214 89.7042C69.6642 89.6736 69.807 89.721 69.9084 89.8362C70.4628 90.462 69.8004 94.5894 69.102 96.6306C69.0114 96.8958 68.8986 97.128 68.7678 97.3248C69.1404 98.055 69.6894 98.5524 70.2636 98.8254C70.7244 99.0444 71.1972 99.1242 71.6274 99.084C71.5734 98.9706 71.5248 98.8554 71.481 98.7384C71.0052 97.4502 71.238 95.9628 72.192 94.1916C72.825 93.0168 73.341 92.469 73.8162 92.4684C73.9572 92.4684 74.2218 92.5206 74.4084 92.8656C74.9316 93.831 74.553 97.017 73.5186 98.598C73.275 98.9706 72.9384 99.2532 72.5478 99.4368C73.3518 100.494 74.8782 101.425 77.3172 102.371C77.4714 102.431 77.5482 102.604 77.4888 102.758C77.442 102.876 77.328 102.949 77.208 102.949ZM73.8156 93.0666C73.8138 93.0666 73.4766 93.069 72.7194 94.4748C71.8518 96.0858 71.6304 97.4118 72.0432 98.529C72.0936 98.6658 72.1536 98.799 72.2232 98.931C72.5436 98.7936 72.8178 98.5704 73.0158 98.2686C73.8558 96.984 74.2584 94.3458 73.9458 93.3144C73.8816 93.1032 73.8162 93.0666 73.8156 93.0666ZM69.5124 90.5388C69.3576 90.8298 69.0972 91.4292 68.7084 92.6562C68.1936 94.281 68.1906 95.5866 68.4774 96.585C68.4972 96.5346 68.5158 96.4842 68.5332 96.4344C69.2388 94.3716 69.5826 91.53 69.5124 90.5388ZM65.5608 88.6488C65.4594 88.7418 65.1678 89.1198 64.7496 90.5814C64.1982 92.5092 64.5378 94.2678 65.1858 95.529C65.31 95.2686 65.3964 94.9686 65.4558 94.6878C66.078 91.7412 65.8968 89.0754 65.5608 88.6488Z" fill="#263238"/>
<path d="M100.02 134.398C99.1045 134.398 98.1421 134.189 97.2829 133.685C97.1401 133.6 97.0921 133.417 97.1761 133.274C97.2595 133.13 97.4437 133.084 97.5865 133.166C99.7267 134.423 102.493 133.546 103.063 132.631C103.129 132.523 103.189 132.387 103.151 132.228C102.304 132.317 101.263 132.093 100.072 131.348C98.5453 130.394 98.4277 130.11 98.4373 129.883C98.4433 129.749 98.5195 129.632 98.6419 129.569C99.2395 129.266 101.945 130.514 103.073 131.255C103.221 131.353 103.345 131.458 103.446 131.569C103.945 131.447 104.331 131.189 104.588 130.882C104.764 130.67 104.882 130.439 104.94 130.208C104.901 130.214 104.86 130.219 104.82 130.223C103.861 130.319 102.898 129.908 101.874 128.96C101.169 128.309 100.896 127.861 100.987 127.505C101.016 127.391 101.11 127.19 101.418 127.113C102.248 126.907 104.296 127.78 105.134 128.698C105.322 128.905 105.451 129.148 105.519 129.409C106.302 129.041 107.13 128.216 108.111 126.846C108.207 126.711 108.394 126.68 108.529 126.777C108.664 126.873 108.695 127.061 108.599 127.195C107.466 128.779 106.521 129.677 105.571 130.043C105.534 130.465 105.36 130.895 105.05 131.267C104.746 131.631 104.302 131.944 103.741 132.113C103.801 132.383 103.747 132.669 103.573 132.949C103.066 133.763 101.616 134.398 100.02 134.398ZM99.4867 130.237C99.6883 130.385 99.9775 130.582 100.39 130.841C101.205 131.35 101.93 131.585 102.55 131.634C101.556 131.018 100.256 130.472 99.4867 130.237ZM101.581 127.688C101.614 127.781 101.748 128.028 102.28 128.521C103.172 129.345 103.983 129.712 104.759 129.627C104.823 129.62 104.887 129.611 104.951 129.598C104.908 129.416 104.821 129.247 104.691 129.103C103.846 128.177 101.991 127.591 101.581 127.688Z" fill="#263238"/>
<path d="M107.965 133.575L98.6163 135.273L90.1281 88.9458L72.0897 92.2224L42.6963 144.422L45.8523 161.647L83.5545 154.798L86.1357 168.887L104.174 165.61L101.593 151.522L110.942 149.824L107.965 133.575ZM60.6567 142.169L76.2321 114.829L80.5785 138.55L60.6567 142.169Z" fill="#734CF5"/>
<path d="M183.258 85.7952C182.909 82.5948 182.27 79.7514 181.34 77.2644C180.411 74.7774 179.012 72.3396 177.146 69.951C175.28 67.5624 172.739 65.4888 169.524 63.7314C166.308 61.9746 162.063 60.7512 156.79 60.0642C145.815 58.6344 137.259 60.5832 131.121 65.9082C124.981 71.2344 120.943 81.4368 119.002 96.5148C118.212 102.647 118.017 108.316 118.416 113.522C118.813 118.727 119.769 122.914 121.282 126.082C123.353 130.533 126.283 134.088 130.072 136.745C133.86 139.402 139.049 141.161 145.642 142.019C157.4 143.551 166.113 141.295 171.783 135.247C177.452 129.201 181.213 118.98 183.066 104.587C183.894 98.1648 183.957 91.9014 183.258 85.7952Z" fill="#734CF5"/>
<path d="M151.059 135.86C149.616 135.811 148.081 135.68 146.495 135.473C141.003 134.758 136.753 133.368 133.863 131.341C131.012 129.341 128.855 126.711 127.268 123.297L127.239 123.235C126.085 120.821 125.331 117.383 124.998 113.018C124.635 108.286 124.82 103.017 125.549 97.3572C127.69 80.7246 132.113 73.785 135.447 70.893C139.334 67.521 144.579 65.997 151.485 66.2334C152.9 66.282 154.398 66.4086 155.937 66.609C160.369 67.1862 163.875 68.1666 166.359 69.5232C168.765 70.8378 170.645 72.3492 171.945 74.0142C173.388 75.8598 174.468 77.7312 175.158 79.5756C175.892 81.5376 176.409 83.871 176.697 86.5104C177.336 92.0958 177.276 97.8822 176.522 103.744C174.858 116.667 171.644 125.747 166.97 130.732C163.502 134.431 158.298 136.109 151.061 135.86C151.06 135.86 151.059 135.86 151.059 135.86Z" fill="#263238"/>
<path d="M162.802 85.9722L162.88 83.6994L161.485 83.2434C161.427 82.467 161.298 81.7002 161.113 80.961L162.296 80.0892L161.492 77.9544L160.029 78.072C159.681 77.382 159.271 76.725 158.812 76.1088L159.57 74.844L158.012 73.182L156.704 73.8516C156.114 73.3512 155.493 72.8976 154.829 72.4968L155.04 71.0448L152.966 70.1028L152.015 71.217C151.291 70.9818 150.54 70.806 149.764 70.6896L149.411 69.2664L147.132 69.1884L146.682 70.584C145.899 70.647 145.139 70.7712 144.4 70.956L143.522 69.7794L141.387 70.5768L141.505 72.0396C140.814 72.3942 140.158 72.8034 139.542 73.263L138.283 72.5058L136.615 74.0574L137.285 75.3708C136.784 75.954 136.331 76.581 135.935 77.2458L134.484 77.028L133.536 79.1028L134.657 80.0538C134.421 80.7786 134.24 81.5346 134.129 82.305L132.7 82.6638L132.622 84.9366L134.023 85.3932C134.08 86.1756 134.21 86.9364 134.395 87.675L133.212 88.5468L134.016 90.6816L135.479 90.5634C135.827 91.2534 136.237 91.9104 136.696 92.5266L135.938 93.7914L137.496 95.454L138.804 94.7844C139.387 95.2848 140.014 95.7384 140.678 96.1398L140.46 97.5912L142.535 98.5332L143.492 97.419C144.216 97.6542 144.967 97.83 145.743 97.9464L146.097 99.3696L148.376 99.4476L148.826 98.052C149.608 97.989 150.369 97.8648 151.107 97.68L151.98 98.8566L154.115 98.0592L154.002 96.5964C154.693 96.2418 155.343 95.832 155.966 95.3724L157.224 96.1302L158.892 94.578L158.223 93.2646C158.723 92.6814 159.177 92.0544 159.572 91.3896L161.023 91.6074L161.97 89.5326L160.85 88.5816C161.085 87.8574 161.267 87.1068 161.378 86.3304L162.802 85.9722ZM147.445 93.3348C142.468 93.1644 138.57 88.9902 138.741 84.0132C138.912 79.0302 143.085 75.1332 148.062 75.3036C153.039 75.474 156.937 79.6476 156.766 84.6306C156.596 89.6076 152.422 93.5052 147.445 93.3348Z" fill="#734CF5"/>
<path opacity="0.3" d="M172.274 127.719L172.439 126.187L171.518 125.812C171.515 125.285 171.469 124.763 171.382 124.255L172.222 123.722L171.795 122.24L170.798 122.248C170.597 121.763 170.36 121.298 170.08 120.861L170.649 120.045L169.686 118.846L168.768 119.229C168.401 118.865 168.005 118.529 167.573 118.226L167.796 117.251L166.446 116.51L165.74 117.223C165.256 117.016 164.755 116.866 164.254 116.75L164.084 115.769L162.552 115.597L162.177 116.518C161.65 116.521 161.136 116.574 160.62 116.662L160.087 115.814L158.605 116.248L158.613 117.245C158.135 117.447 157.671 117.684 157.226 117.964L156.41 117.388L155.212 118.351L155.595 119.269C155.238 119.636 154.894 120.032 154.591 120.464L153.622 120.248L152.881 121.598L153.588 122.297C153.388 122.789 153.231 123.282 153.115 123.79L152.134 123.953L151.969 125.485L152.889 125.867C152.886 126.387 152.938 126.908 153.026 127.417L152.179 127.95L152.613 129.433L153.61 129.431C153.812 129.909 154.048 130.373 154.329 130.811L153.753 131.627L154.716 132.833L155.643 132.443C156.009 132.807 156.405 133.144 156.837 133.447L156.614 134.422L157.965 135.164L158.67 134.458C159.154 134.657 159.655 134.807 160.156 134.923L160.326 135.904L161.858 136.076L162.234 135.155C162.753 135.152 163.275 135.1 163.79 135.012L164.323 135.859L165.798 135.425L165.798 134.428C166.275 134.226 166.74 133.99 167.184 133.71L167.993 134.285L169.198 133.323L168.808 132.404C169.172 132.037 169.509 131.641 169.818 131.21L170.787 131.425L171.528 130.075L170.821 129.376C171.021 128.885 171.171 128.391 171.286 127.889L172.274 127.719ZM164.55 127.124C163.839 128.42 162.207 128.898 160.912 128.186C159.616 127.475 159.145 125.844 159.857 124.549C160.569 123.253 162.192 122.782 163.488 123.493C164.784 124.205 165.261 125.829 164.55 127.124Z" fill="#734CF5"/>
<path d="M180.774 101.789L178.985 100.554C178.985 100.553 178.985 100.551 178.984 100.55C178.807 99.9 178.563 99.2748 178.265 98.6868L178.723 96.8886L176.129 94.11L174.303 94.4442C173.738 94.1064 173.13 93.8208 172.495 93.6C172.494 93.5994 172.492 93.5994 172.49 93.5988L171.38 91.7292L167.582 91.599L166.346 93.3876C166.344 93.3882 166.341 93.3888 166.339 93.3894C165.69 93.5664 165.065 93.81 164.478 94.1076L162.68 93.6492L159.902 96.2436L160.236 98.0664C160.235 98.067 160.235 98.0676 160.235 98.0682C159.89 98.64 159.611 99.2472 159.39 99.8832L157.521 100.993L157.391 104.792L159.18 106.028C159.357 106.682 159.594 107.306 159.897 107.899C159.897 107.899 159.897 107.899 159.897 107.899L159.441 109.692L162.035 112.47L163.85 112.138C164.422 112.477 165.03 112.763 165.674 112.984C165.674 112.985 165.675 112.985 165.675 112.985L166.784 114.851L170.582 114.982L171.816 113.194C172.473 113.018 173.099 112.774 173.693 112.475C173.693 112.475 173.694 112.475 173.694 112.474L175.483 112.93L178.261 110.336L177.927 108.514C178.272 107.942 178.551 107.334 178.772 106.699L180.642 105.587L180.774 101.789ZM168.935 107.564C166.574 107.483 164.729 105.501 164.81 103.147C164.891 100.785 166.866 98.9406 169.227 99.021C171.589 99.102 173.433 101.078 173.353 103.439C173.273 105.793 171.296 107.645 168.935 107.564Z" fill="white"/>
<path d="M193.826 71.4744L194.138 70.7202C194.139 70.7202 194.14 70.7196 194.14 70.7196C194.365 70.6038 194.575 70.4646 194.768 70.3086L195.464 70.335L196.28 69.1638L196.014 68.5194C196.093 68.2854 196.151 68.04 196.181 67.7892C196.181 67.7886 196.181 67.788 196.181 67.7874L196.78 67.2324L196.529 65.8272L195.775 65.5146C195.774 65.514 195.774 65.5128 195.773 65.5122C195.658 65.2878 195.519 65.0778 195.363 64.8852L195.389 64.1892L194.218 63.3732L193.575 63.639H193.574C193.337 63.5574 193.093 63.5028 192.842 63.4716L192.287 62.8728L190.882 63.1242L190.568 63.879C190.342 63.9954 190.132 64.1316 189.938 64.29L189.244 64.2636L188.428 65.4348L188.693 66.075C188.614 66.312 188.556 66.5574 188.526 66.8112L187.928 67.3656L188.179 68.7708L188.933 69.0834C189.049 69.3108 189.188 69.5214 189.345 69.7158L189.319 70.4088L190.49 71.2248L191.133 70.9584C191.37 71.04 191.615 71.0946 191.866 71.1258L192.421 71.7252L193.826 71.4744ZM190.772 67.5822C190.616 66.7086 191.199 65.8752 192.07 65.7192C192.943 65.5632 193.776 66.1428 193.933 67.0164C194.089 67.89 193.508 68.7228 192.635 68.8794C191.765 69.0354 190.929 68.4558 190.772 67.5822Z" fill="#734CF5"/>
<path d="M177.365 67.4934L176.906 67.1064C177.703 66.1632 178.833 64.968 180.511 64.089L180.789 64.6212C179 65.5578 177.854 66.9144 177.365 67.4934Z" fill="#734CF5"/>
<path d="M182.155 64.0812L181.918 63.5292C184.188 62.5572 186.559 62.178 188.961 62.4012L188.906 62.9988C186.602 62.7792 184.331 63.1476 182.155 64.0812Z" fill="#734CF5"/>
<path d="M181.022 68.232L180.526 67.8942C181.759 66.084 184.194 64.5078 186.449 64.0608L186.565 64.6488C184.452 65.0688 182.173 66.5418 181.022 68.232Z" fill="#734CF5"/>
<path d="M141.207 125.974C141.126 125.974 141.048 125.942 140.991 125.883L139.733 124.586C139.092 124.526 138.459 124.408 137.845 124.235L135.885 125.099C135.792 125.142 135.684 125.131 135.598 125.075L132.313 122.897C132.228 122.84 132.177 122.745 132.178 122.642L132.211 120.505C131.812 120.008 131.456 119.468 131.151 118.898L129.468 118.246C129.373 118.208 129.303 118.126 129.282 118.026L128.499 114.163C128.479 114.063 128.511 113.959 128.584 113.888L129.881 112.63C129.941 111.992 130.059 111.358 130.231 110.741L129.368 108.782C129.327 108.689 129.336 108.581 129.392 108.495L131.569 105.209C131.626 105.124 131.706 105.071 131.824 105.075L133.961 105.108C134.463 104.707 135.003 104.351 135.568 104.049L136.221 102.365C136.258 102.269 136.341 102.2 136.441 102.179L140.304 101.395C140.404 101.376 140.508 101.407 140.579 101.48L141.835 102.776C142.474 102.836 143.109 102.954 143.727 103.127L145.685 102.263C145.778 102.223 145.886 102.232 145.972 102.288L149.257 104.465C149.342 104.522 149.392 104.618 149.391 104.72L149.359 106.859C149.758 107.357 150.114 107.896 150.417 108.464L152.101 109.118C152.197 109.155 152.266 109.237 152.287 109.337L153.07 113.2C153.091 113.3 153.058 113.404 152.985 113.476L151.688 114.734C151.629 115.364 151.511 115.997 151.337 116.62L152.202 118.581C152.243 118.675 152.233 118.783 152.178 118.868L150.001 122.155C149.944 122.24 149.854 122.282 149.746 122.289L147.609 122.257C147.111 122.654 146.571 123.008 146.004 123.312L145.349 125C145.312 125.095 145.229 125.165 145.129 125.186L141.266 125.969C141.246 125.972 141.226 125.974 141.207 125.974ZM137.824 123.616C137.853 123.616 137.881 123.62 137.909 123.629C138.552 123.817 139.219 123.942 139.896 123.998C139.968 124.004 140.035 124.036 140.086 124.088L141.307 125.348L144.849 124.63L145.485 122.99C145.511 122.923 145.561 122.866 145.626 122.833C146.227 122.519 146.796 122.146 147.315 121.722C147.369 121.678 147.431 121.647 147.508 121.655L149.591 121.687L151.587 118.675L150.745 116.764C150.717 116.7 150.712 116.627 150.732 116.559C150.921 115.904 151.045 115.236 151.101 114.572C151.107 114.5 151.139 114.433 151.191 114.382L152.451 113.16L151.733 109.619L150.097 108.985C150.027 108.958 149.97 108.906 149.937 108.839C149.625 108.239 149.251 107.674 148.826 107.156C148.781 107.101 148.756 107.032 148.758 106.961L148.789 104.876L145.777 102.88L143.872 103.72C143.807 103.748 143.735 103.753 143.667 103.734C143.017 103.545 142.346 103.42 141.673 103.364C141.601 103.358 141.534 103.326 141.483 103.275L140.263 102.017L136.722 102.735L136.088 104.371C136.062 104.439 136.011 104.495 135.946 104.529C135.349 104.84 134.78 105.215 134.257 105.641C134.202 105.686 134.129 105.718 134.062 105.71L131.98 105.677L129.984 108.689L130.825 110.597C130.861 110.679 130.858 110.773 130.819 110.852C130.65 111.452 130.525 112.121 130.469 112.792C130.463 112.864 130.431 112.931 130.379 112.982L129.12 114.203L129.838 117.744L131.473 118.378C131.547 118.406 131.605 118.462 131.637 118.532C131.948 119.128 132.321 119.693 132.744 120.207C132.789 120.262 132.814 120.332 132.813 120.403L132.781 122.486L135.793 124.483L137.703 123.641C137.742 123.625 137.783 123.616 137.824 123.616ZM140.775 121.675C139.258 121.675 137.726 121.246 136.369 120.347C134.59 119.167 133.375 117.365 132.95 115.273C132.525 113.18 132.94 111.047 134.12 109.267H134.121C136.56 105.592 141.532 104.582 145.204 107.017C148.878 109.454 149.886 114.427 147.451 118.101C145.914 120.419 143.368 121.675 140.775 121.675ZM134.62 109.598C133.53 111.244 133.145 113.217 133.539 115.153C133.932 117.089 135.055 118.756 136.701 119.846C140.101 122.099 144.699 121.167 146.95 117.769C149.202 114.371 148.27 109.771 144.873 107.517C141.475 105.265 136.876 106.199 134.62 109.598Z" fill="white"/>
<path d="M255.496 138.99L246.079 137.719L252.307 91.0344L234.138 88.5828L190.066 129.158L187.751 146.516L225.726 151.641L223.833 165.838L242.001 168.29L243.895 154.093L253.312 155.363L255.496 138.99ZM207.845 132.559L231.1 111.362L227.911 135.267L207.845 132.559Z" fill="#734CF5"/>
<path d="M236.481 167.845C236.463 167.845 236.445 167.843 236.427 167.84C236.264 167.81 236.156 167.654 236.186 167.491L250.181 90.7326C250.211 90.5706 250.368 90.4686 250.53 90.4914C250.693 90.5214 250.801 90.678 250.771 90.8406L236.775 167.599C236.749 167.743 236.623 167.845 236.481 167.845Z" fill="#263238"/>
<path d="M248.899 92.022C248.889 92.2932 248.662 92.5056 248.391 92.4966C248.12 92.487 247.907 92.2596 247.916 91.9884C247.925 91.7172 248.153 91.5048 248.425 91.5138C248.696 91.5228 248.909 91.7502 248.899 92.022Z" fill="#263238"/>
<path d="M246.9 102.403C246.89 102.674 246.663 102.886 246.392 102.877C246.121 102.868 245.908 102.64 245.917 102.369C245.926 102.098 246.154 101.885 246.425 101.894C246.697 101.903 246.909 102.131 246.9 102.403Z" fill="#263238"/>
<path d="M244.9 112.783C244.89 113.054 244.663 113.266 244.392 113.257C244.121 113.248 243.908 113.02 243.917 112.749C243.926 112.478 244.154 112.265 244.425 112.274C244.697 112.284 244.91 112.511 244.9 112.783Z" fill="#263238"/>
<path d="M240.968 123.589C240.959 123.86 240.731 124.073 240.46 124.064C240.189 124.054 239.977 123.827 239.986 123.556C239.995 123.284 240.223 123.072 240.494 123.081C240.765 123.09 240.978 123.317 240.968 123.589Z" fill="#263238"/>
<path d="M240.901 133.544C240.891 133.815 240.664 134.027 240.393 134.018C240.122 134.009 239.909 133.781 239.918 133.51C239.927 133.239 240.155 133.027 240.426 133.036C240.698 133.045 240.911 133.273 240.901 133.544Z" fill="#263238"/>
<path d="M238.902 143.924C238.892 144.196 238.665 144.408 238.394 144.399C238.123 144.39 237.91 144.162 237.919 143.891C237.928 143.62 238.156 143.407 238.427 143.416C238.699 143.425 238.911 143.653 238.902 143.924Z" fill="#263238"/>
<path d="M236.902 154.305C236.892 154.576 236.665 154.789 236.394 154.78C236.123 154.77 235.91 154.543 235.919 154.271C235.929 154 236.156 153.788 236.427 153.797C236.699 153.806 236.912 154.033 236.902 154.305Z" fill="#263238"/>
<path d="M234.903 164.685C234.893 164.956 234.666 165.169 234.395 165.16C234.124 165.151 233.911 164.923 233.92 164.651C233.929 164.38 234.157 164.168 234.428 164.177C234.7 164.186 234.912 164.414 234.903 164.685Z" fill="#263238"/>
<path d="M240.476 123.872C240.338 123.872 240.214 123.776 240.184 123.635C240.149 123.473 240.252 123.314 240.414 123.278L241.904 122.959C242.069 122.926 242.226 123.026 242.261 123.19C242.296 123.352 242.192 123.511 242.03 123.546L240.54 123.866C240.518 123.87 240.497 123.872 240.476 123.872Z" fill="#263238"/>
<path d="M245.451 118.345C245.451 118.345 244.108 121.842 243.656 123.961C243.204 126.08 243.177 130.816 243.177 130.816" fill="#263238"/>
<path d="M243.177 131.116H243.175C243.01 131.114 242.876 130.979 242.877 130.814C242.878 130.619 242.909 126.023 243.363 123.898C243.815 121.781 245.116 118.381 245.171 118.237C245.23 118.082 245.403 118.006 245.558 118.064C245.713 118.124 245.791 118.298 245.731 118.452C245.718 118.487 244.392 121.952 243.95 124.024C243.509 126.089 243.478 130.771 243.477 130.817C243.476 130.983 243.342 131.116 243.177 131.116Z" fill="#263238"/>
<path d="M133.472 182.905C134.305 169.463 132.772 145.028 158.038 148.263C185.119 151.73 177.371 183.397 177.371 183.397L133.472 182.905Z" fill="#263238"/>
<path d="M150.909 174.825C156.998 174.825 161.934 169.889 161.934 163.8C161.934 157.711 156.998 152.775 150.909 152.775C144.82 152.775 139.884 157.711 139.884 163.8C139.884 169.889 144.82 174.825 150.909 174.825Z" fill="white"/>
<path d="M152.356 152.792C147.134 151.901 141.55 155.75 141 159.65L161.704 161.554C160.975 157.108 156.5 153.5 152.356 152.792Z" fill="#263238"/>
<path d="M159.346 163.526C159.197 166.408 157.627 168.67 155.837 168.578C154.047 168.487 152.716 166.075 152.864 163.193C153.012 160.31 154.583 158.048 156.373 158.14C158.162 158.232 159.494 160.643 159.346 163.526Z" fill="#263238"/>
<path d="M150.909 175.425C144.498 175.425 139.283 170.21 139.283 163.8C139.283 157.39 144.498 152.175 150.909 152.175C157.319 152.175 162.534 157.39 162.534 163.8C162.534 170.21 157.319 175.425 150.909 175.425ZM150.909 153.375C145.16 153.375 140.483 158.051 140.483 163.8C140.483 169.549 145.16 174.225 150.909 174.225C156.657 174.225 161.334 169.549 161.334 163.8C161.334 158.051 156.657 153.375 150.909 153.375Z" fill="#734CF5"/>
<path opacity="0.3" d="M174.291 182.566C174.268 182.566 174.244 182.563 174.22 182.558C174.06 182.519 173.96 182.357 173.999 182.195C174.019 182.114 175.93 173.979 173.945 165.754C173.906 165.593 174.005 165.431 174.166 165.391C174.325 165.355 174.489 165.451 174.528 165.613C176.549 173.983 174.603 182.253 174.582 182.336C174.549 182.474 174.427 182.566 174.291 182.566Z" fill="white"/>
<path opacity="0.3" d="M172.62 161.255C172.506 161.255 172.397 161.191 172.347 161.08C171.575 159.397 170.618 157.851 169.501 156.486C169.396 156.358 169.416 156.169 169.544 156.064C169.672 155.959 169.861 155.977 169.966 156.106C171.115 157.511 172.099 159.1 172.892 160.831C172.961 160.981 172.895 161.159 172.744 161.228C172.704 161.246 172.662 161.255 172.62 161.255Z" fill="white"/>
<path d="M77.2415 245.951C77.1671 245.951 77.0927 245.95 77.0183 245.948C75.3623 245.902 74.0567 244.523 74.1017 242.866C74.1467 241.21 75.5111 239.929 77.1827 239.95C77.2013 239.951 77.2205 239.951 77.2403 239.951C78.9737 239.951 83.1437 237.845 91.8671 224.093C92.3357 223.355 93.1037 222.857 93.9689 222.731C94.8359 222.608 95.7119 222.865 96.3719 223.439C107.137 232.825 118.544 238.667 118.658 238.725C120.135 239.475 120.725 241.281 119.975 242.758C119.225 244.235 117.42 244.826 115.943 244.075C115.49 243.845 105.519 238.747 95.0645 230.188C87.7529 241.179 82.3271 245.951 77.2415 245.951Z" fill="#263238"/>
<path d="M95.8018 222.9C95.7166 222.9 95.6314 222.894 95.545 222.882C94.561 222.742 93.8771 221.83 94.0181 220.845C94.4447 217.859 93.916 206.669 90.133 197.969C89.788 197.177 90.0556 196.251 90.7702 195.764C98.989 190.163 116.496 189.493 117.237 189.467C118.226 189.446 119.064 190.21 119.099 191.204C119.133 192.197 118.356 193.031 117.363 193.065C117.201 193.071 101.895 193.658 94.03 197.986C97.3804 206.649 98.14 217.448 97.5814 221.354C97.453 222.253 96.6832 222.9 95.8018 222.9Z" fill="#263238"/>
<path d="M98.8265 220.57C97.6295 217.746 92.2337 218.067 89.0657 220.487C87.3725 221.78 85.0811 225.671 84.8399 227.081C84.5993 228.492 85.5761 229.769 87.2537 229.624C89.3225 229.445 92.1623 226.439 92.1623 226.439C90.2729 228.292 92.7107 229.599 96.3485 226.919C98.3669 225.433 100.167 223.732 98.8265 220.57Z" fill="#734CF5"/>
<path d="M202.024 183.697C201.997 183.697 201.968 183.693 201.941 183.685C201.782 183.639 201.689 183.472 201.736 183.314C202.535 180.53 203.408 178.829 204.556 177.883C204.38 177.286 204.4 176.599 204.647 175.928C204.889 175.274 205.355 174.625 206.065 174.125C205.717 173.749 205.588 173.258 205.711 172.696C205.847 172.071 206.301 171.394 206.992 170.802C206.72 170.489 206.654 170.149 206.652 169.897C206.637 168.108 209.956 165.382 213.709 164.87C213.874 164.839 214.025 164.962 214.047 165.127C214.069 165.29 213.955 165.442 213.79 165.464C210.227 165.951 207.24 168.53 207.252 169.892C207.254 170.113 207.335 170.291 207.469 170.434C208.82 169.494 210.814 168.889 213.038 169.316C214.88 169.669 215.629 170.057 215.542 170.617C215.379 171.668 211.457 171.886 208.828 171.573C208.232 171.502 207.796 171.361 207.478 171.185C206.825 171.72 206.406 172.32 206.297 172.823C206.199 173.273 206.344 173.586 206.594 173.805C207.707 173.231 209.275 172.991 211.343 173.448C214.066 174.049 214.167 174.38 214.228 174.578C214.271 174.719 214.237 174.864 214.132 174.975C213.558 175.583 209.388 175.294 207.293 174.781C207.02 174.715 206.779 174.623 206.571 174.511C205.877 174.948 205.43 175.538 205.21 176.135C205.034 176.614 204.994 177.091 205.075 177.517C205.183 177.453 205.293 177.394 205.406 177.34C206.647 176.751 208.148 176.85 209.998 177.641C211.225 178.166 211.817 178.631 211.86 179.104C211.873 179.244 211.846 179.512 211.518 179.729C210.603 180.337 207.396 180.245 205.729 179.357C205.336 179.147 205.025 178.838 204.806 178.466C203.825 179.362 203.035 180.965 202.313 183.479C202.274 183.611 202.154 183.697 202.024 183.697ZM205.279 178.098C205.444 178.405 205.691 178.658 206.01 178.828C207.364 179.549 210.028 179.714 211.027 179.311C211.231 179.228 211.262 179.159 211.262 179.159C211.262 179.157 211.229 178.821 209.761 178.193C208.079 177.474 206.738 177.373 205.663 177.883C205.532 177.945 205.403 178.016 205.279 178.098ZM207.279 174.157C207.331 174.172 207.383 174.187 207.434 174.199C209.552 174.718 212.413 174.806 213.394 174.645C213.09 174.517 212.47 174.311 211.213 174.034C209.549 173.668 208.248 173.782 207.279 174.157ZM208.036 170.784C208.307 170.885 208.613 170.944 208.898 170.978C211.888 171.332 214.528 170.914 214.922 170.541C214.82 170.449 214.418 170.192 212.925 169.906C210.955 169.531 209.234 170.025 208.036 170.784Z" fill="#263238"/>
<path d="M123.916 244.949C124.312 244.822 124.179 244.441 123.738 244.441H115.615C100.146 242.803 89.3382 244.998 96.1488 245.516C102.959 246.034 95.6694 245.925 90.696 247.806C85.7226 249.688 127.688 250.162 131.505 247.806C135.025 245.633 118.435 246.706 123.916 244.949Z" fill="#263238"/>
<path d="M182.081 247.343L111.4 245L108.467 176.467L191.933 178.333L182.081 247.343Z" fill="#734CF5"/>
<path d="M133.472 246.032C133.317 246.032 133.185 245.914 133.173 245.756L127.507 176.924C127.493 176.759 127.616 176.614 127.782 176.6C127.952 176.591 128.092 176.71 128.105 176.875L133.771 245.707C133.784 245.872 133.662 246.017 133.496 246.031C133.488 246.031 133.479 246.032 133.472 246.032Z" fill="#263238"/>
<path d="M182.082 247.343L201.079 244.451L207.063 180.725L191.934 178.333L182.082 247.343Z" fill="#734CF5"/>
<path opacity="0.2" d="M182.082 247.343L201.079 244.451L207.063 180.725L191.934 178.333L182.082 247.343Z" fill="black"/>
<path d="M117.441 231.79L115.698 191.073C115.516 186.823 118.965 183.304 123.217 183.399L176.053 184.58C180.465 184.679 183.799 188.611 183.175 192.98L177.318 234.015C176.787 237.734 173.541 240.457 169.786 240.332L124.552 238.832C120.705 238.705 117.606 235.635 117.441 231.79Z" fill="#263238"/>
<path d="M123.149 195.893L131.323 196.153L131.256 198.261L126.139 198.098L126.089 199.667L130.836 199.819L130.772 201.832L126.025 201.68L125.963 203.626L131.228 203.794L131.158 206.029L122.835 205.765L123.149 195.893Z" fill="white"/>
<path d="M132.841 206.083L133.155 196.211L138.238 196.373C139.181 196.403 139.899 196.507 140.392 196.685C140.885 196.862 141.277 197.174 141.568 197.622C141.86 198.07 141.996 198.607 141.975 199.236C141.958 199.784 141.826 200.252 141.58 200.642C141.334 201.032 141.002 201.344 140.586 201.578C140.32 201.727 139.959 201.845 139.502 201.934C139.861 202.067 140.122 202.197 140.284 202.323C140.394 202.408 140.551 202.586 140.755 202.858C140.96 203.129 141.096 203.338 141.163 203.485L142.549 206.392L139.103 206.282L137.569 203.214C137.374 202.817 137.199 202.558 137.041 202.436C136.825 202.276 136.579 202.192 136.3 202.183L136.031 202.174L135.904 206.181L132.841 206.083ZM136.092 200.309L137.377 200.35C137.517 200.354 137.787 200.318 138.19 200.241C138.393 200.207 138.561 200.109 138.694 199.947C138.828 199.785 138.898 199.596 138.904 199.381C138.915 199.062 138.822 198.814 138.625 198.637C138.428 198.46 138.052 198.363 137.495 198.345L136.155 198.302L136.092 200.309Z" fill="white"/>
<path d="M143.566 206.424L143.88 196.553L148.964 196.715C149.907 196.745 150.625 196.849 151.117 197.026C151.611 197.204 152.002 197.516 152.294 197.963C152.586 198.411 152.721 198.949 152.701 199.577C152.683 200.125 152.551 200.594 152.305 200.984C152.059 201.374 151.728 201.686 151.311 201.919C151.046 202.068 150.685 202.187 150.228 202.276C150.587 202.409 150.848 202.538 151.01 202.664C151.12 202.749 151.276 202.927 151.482 203.199C151.686 203.471 151.822 203.68 151.89 203.826L153.276 206.734L149.829 206.624L148.294 203.555C148.101 203.159 147.924 202.899 147.766 202.777C147.551 202.618 147.304 202.533 147.026 202.524L146.757 202.516L146.629 206.522L143.566 206.424ZM146.817 200.65L148.103 200.691C148.242 200.695 148.513 200.659 148.915 200.582C149.119 200.548 149.287 200.45 149.42 200.288C149.553 200.126 149.623 199.937 149.63 199.721C149.64 199.403 149.547 199.155 149.35 198.978C149.154 198.801 148.777 198.704 148.221 198.686L146.881 198.643L146.817 200.65Z" fill="white"/>
<path d="M153.79 201.815C153.842 200.204 154.33 198.964 155.257 198.094C156.183 197.225 157.447 196.816 159.05 196.867C160.693 196.919 161.945 197.401 162.805 198.311C163.666 199.221 164.071 200.471 164.021 202.06C163.984 203.214 163.76 204.154 163.348 204.88C162.936 205.606 162.357 206.163 161.61 206.551C160.863 206.938 159.942 207.114 158.847 207.079C157.734 207.044 156.818 206.837 156.1 206.459C155.382 206.081 154.808 205.502 154.379 204.719C153.95 203.937 153.754 202.969 153.79 201.815ZM156.84 201.926C156.808 202.922 156.971 203.644 157.327 204.091C157.684 204.538 158.181 204.772 158.818 204.793C159.474 204.814 159.988 204.616 160.36 204.202C160.733 203.786 160.937 203.027 160.972 201.922C161.002 200.993 160.836 200.308 160.475 199.868C160.114 199.427 159.612 199.196 158.97 199.176C158.355 199.156 157.854 199.358 157.468 199.782C157.081 200.206 156.872 200.92 156.84 201.926Z" fill="white"/>
<path d="M165.545 207.123L165.859 197.252L170.943 197.414C171.885 197.444 172.603 197.548 173.096 197.725C173.589 197.903 173.981 198.215 174.273 198.662C174.564 199.11 174.7 199.648 174.679 200.276C174.662 200.824 174.53 201.293 174.284 201.683C174.038 202.073 173.706 202.385 173.29 202.618C173.024 202.767 172.663 202.886 172.206 202.975C172.566 203.108 172.827 203.237 172.989 203.363C173.098 203.448 173.255 203.626 173.46 203.898C173.664 204.17 173.8 204.379 173.868 204.525L175.254 207.433L171.807 207.323L170.273 204.254C170.079 203.858 169.903 203.598 169.745 203.476C169.53 203.317 169.283 203.232 169.005 203.223L168.735 203.215L168.608 207.221L165.545 207.123ZM168.796 201.349L170.082 201.39C170.221 201.394 170.491 201.358 170.894 201.281C171.097 201.247 171.265 201.149 171.399 200.987C171.532 200.825 171.602 200.636 171.609 200.42C171.619 200.102 171.526 199.854 171.329 199.677C171.132 199.5 170.756 199.403 170.199 199.385L168.859 199.342L168.796 201.349Z" fill="white"/>
<path d="M170.4 223.895C170.186 223.895 169.974 223.808 169.818 223.639L164.681 218.017L159.139 223.081C158.818 223.375 158.32 223.351 158.027 223.031L152.89 217.409L147.348 222.473C147.027 222.766 146.528 222.743 146.236 222.423L141.099 216.802L135.557 221.866C135.403 222.007 135.196 222.08 134.99 222.071C134.782 222.062 134.585 221.97 134.444 221.816L129.308 216.194L123.766 221.258C123.445 221.551 122.947 221.528 122.653 221.208C122.36 220.887 122.383 220.388 122.704 220.095L128.827 214.5C129.148 214.205 129.646 214.229 129.94 214.55L135.076 220.171L140.618 215.107C140.772 214.966 140.979 214.893 141.185 214.901C141.394 214.911 141.59 215.003 141.731 215.157L146.867 220.778L152.41 215.715C152.73 215.421 153.229 215.444 153.522 215.765L158.659 221.386L164.201 216.323C164.522 216.028 165.02 216.051 165.314 216.373L170.981 222.575C171.275 222.896 171.252 223.395 170.931 223.688C170.78 223.827 170.59 223.895 170.4 223.895Z" fill="white"/>
<path d="M75.4503 248.8L71.6955 247.009L68.3457 230.709L70.1637 228.707L75.4503 248.8Z" fill="#734CF5"/>
<path d="M75.4507 248.8L80.4337 245.889L76.1617 232.459L70.1641 228.707L75.4507 248.8Z" fill="#734CF5"/>
<path opacity="0.2" d="M75.4507 248.8L80.4337 245.889L76.1617 232.459L70.1641 228.707L75.4507 248.8Z" fill="black"/>
<path d="M157.169 251.763C157.028 251.763 156.889 251.761 156.755 251.757C155.099 251.711 153.792 250.332 153.838 248.675C153.884 247.02 155.252 245.718 156.919 245.759C161.541 245.911 171.323 243.071 176.91 237.647C177.256 237.311 177.677 237.064 178.138 236.926C187.611 234.083 191.136 239.827 191.282 240.073L186.118 243.127C186.118 243.127 186.138 243.168 186.187 243.236C186.129 243.157 184.788 241.413 180.516 242.492C173.504 248.893 162.74 251.763 157.169 251.763Z" fill="#263238"/>
<path d="M156.837 255.751L145.909 255.062L145.047 234.917L159.733 235.466L156.837 255.751Z" fill="#734CF5"/>
<path d="M156.837 255.751L159.391 253.209L160.975 240.647L159.733 235.466L156.837 255.751Z" fill="#734CF5"/>
<path opacity="0.2" d="M156.837 255.751L159.391 253.209L160.975 240.647L159.733 235.466L156.837 255.751Z" fill="black"/>
<path d="M220.146 248.122C219.767 248.122 219.384 248.003 219.059 247.756C212.822 243.016 204.392 234.6 201.156 226.481C201.109 226.363 201.075 226.24 201.054 226.114C199.476 216.734 197.969 196.989 197.906 196.153C197.831 195.162 198.573 194.297 199.564 194.222C200.552 194.149 201.42 194.889 201.495 195.881C201.51 196.082 203.033 216.02 204.572 225.325C207.798 233.218 216.546 241.324 221.237 244.889C222.028 245.491 222.182 246.62 221.58 247.411C221.227 247.877 220.69 248.122 220.146 248.122Z" fill="#263238"/>
<path d="M228.467 249.032C227.076 249.032 225.498 248.401 223.779 247.157C222.974 246.574 222.793 245.449 223.376 244.643C223.96 243.838 225.085 243.658 225.89 244.24C227.376 245.316 228.188 245.432 228.468 245.432C229.462 245.432 230.268 246.238 230.268 247.232C230.267 248.226 229.462 249.032 228.467 249.032Z" fill="#263238"/>
<path d="M224.283 247.105C226.209 241.384 234.105 242.515 236.824 243.364C239.543 244.214 241.993 245.283 243.466 246.246C244.939 247.209 244.963 248.817 242.999 249.736C240.577 250.868 234.502 249.863 234.502 249.863C237.647 251.24 234.496 253.447 228.979 251.279C227.183 250.574 223.603 249.202 224.283 247.105Z" fill="#734CF5"/>
<path d="M205.118 198.622C204.403 203.483 200.378 207.067 197.103 206.586C193.828 206.105 193.692 201.763 194.406 196.902C195.121 192.041 196.416 188.501 199.691 188.983C202.965 189.464 205.832 193.761 205.118 198.622Z" fill="#263238"/>
<path d="M125.925 179.216C126.196 179.216 126.416 178.996 126.416 178.725C126.416 178.454 126.196 178.234 125.925 178.234C125.654 178.234 125.434 178.454 125.434 178.725C125.434 178.996 125.654 179.216 125.925 179.216Z" fill="#263238"/>
<path d="M130.925 182.267C130.925 182.538 130.705 182.758 130.433 182.758C130.162 182.758 129.941 182.538 129.941 182.267C129.941 181.995 130.162 181.775 130.433 181.775C130.705 181.775 130.925 181.995 130.925 182.267Z" fill="#263238"/>
<path d="M131.476 240.41C131.476 240.682 131.255 240.901 130.984 240.901C130.712 240.901 130.492 240.681 130.492 240.41C130.492 240.138 130.712 239.918 130.984 239.918C131.255 239.918 131.476 240.138 131.476 240.41Z" fill="#263238"/>
<path d="M135.983 243.952C135.983 244.223 135.763 244.443 135.491 244.443C135.22 244.443 135 244.223 135 243.952C135 243.68 135.22 243.46 135.491 243.46C135.763 243.46 135.983 243.68 135.983 243.952Z" fill="#263238"/>
<path d="M49.5059 249.851C48.0779 249.851 46.1471 248.986 45.1061 247.482C45.0119 247.346 45.0455 247.159 45.1817 247.065C45.3179 246.97 45.5045 247.004 45.5993 247.141C46.7189 248.758 49.1867 249.62 50.2823 249.109C50.3975 249.055 50.4911 248.987 50.5625 248.906C49.5833 248.453 48.6881 247.568 48.4469 246.217C48.3107 245.456 48.2027 244.429 48.8303 244.286C49.6907 244.093 50.8163 246.174 51.2495 247.751C51.3299 248.043 51.3551 248.314 51.3275 248.557C51.7067 248.661 52.0799 248.688 52.3997 248.642C52.6595 248.604 53.0285 248.497 53.2247 248.195C52.4957 247.702 52.0055 246.833 51.8417 245.681C51.6089 244.041 51.7835 243.755 51.9653 243.615C52.0835 243.524 52.2335 243.507 52.3781 243.568C53.0195 243.841 53.7971 246.169 53.9459 247.486C53.9621 247.631 53.9621 247.77 53.9477 247.901C54.1931 247.999 54.4637 248.053 54.7571 248.059C55.2773 248.089 55.7915 247.923 56.2031 247.681C56.1179 247.628 56.0375 247.568 55.9619 247.504C55.3391 246.972 55.0883 246.122 55.1939 244.906C55.2755 243.965 55.4897 243.451 55.8677 243.29C56.0003 243.231 56.2703 243.176 56.5925 243.433C57.2405 243.951 57.8453 245.592 57.6281 246.767C57.5831 247.01 57.4781 247.244 57.3269 247.458C58.4279 247.648 59.9771 247.339 61.3133 247.009C61.4735 246.97 61.6367 247.067 61.6763 247.228C61.7159 247.389 61.6181 247.551 61.4573 247.591C59.8313 247.993 58.0811 248.32 56.8445 247.961C56.2949 248.398 55.5209 248.663 54.7457 248.658C54.3923 248.651 54.0629 248.588 53.7623 248.473C53.5259 248.876 53.0861 249.148 52.4879 249.236C52.0895 249.295 51.6203 249.257 51.1451 249.121C51.0101 249.346 50.8061 249.527 50.5373 249.653C50.2493 249.786 49.8965 249.851 49.5059 249.851ZM48.9875 244.885C48.9527 244.977 48.8897 245.281 49.0385 246.112C49.2359 247.216 49.9505 247.949 50.7419 248.336C50.7383 248.209 50.7149 248.067 50.6723 247.912C50.2007 246.196 49.3049 245.014 48.9875 244.885ZM52.3301 244.362C52.3265 244.588 52.3469 244.967 52.4363 245.597C52.5581 246.454 52.8737 247.112 53.3477 247.531C53.2073 246.326 52.6727 244.931 52.3301 244.362ZM56.1047 243.841H56.1035C56.1023 243.841 55.8785 243.955 55.7909 244.957C55.7033 245.966 55.8869 246.65 56.3513 247.047C56.4569 247.137 56.5769 247.213 56.7107 247.274C56.8805 247.087 56.9963 246.877 57.0365 246.658C57.1973 245.788 56.7833 244.515 56.3189 244C56.1989 243.866 56.1215 243.841 56.1047 243.841Z" fill="#263238"/>
<path d="M137.324 254.387L138.95 251.567L137.324 248.747H135.583L136.566 251.567L135.583 254.387H137.324Z" fill="#263238"/>
<path d="M135.697 253.037C134.887 253.037 134.227 252.377 134.227 251.567C134.227 250.757 134.887 250.103 135.697 250.103L132.932 249.55L132.199 251.782L133.433 253.666L135.697 253.037Z" fill="#263238"/>
<path d="M135.934 248.747H132.676L131.05 251.567L132.676 254.387H135.934L137.56 251.567L135.934 248.747ZM134.308 253.037C133.498 253.037 132.838 252.377 132.838 251.567C132.838 250.757 133.498 250.103 134.308 250.103C135.118 250.103 135.772 250.757 135.772 251.567C135.772 252.377 135.118 253.037 134.308 253.037Z" fill="#734CF5"/>
<path d="M250.734 248.559L249.526 246.464L250.734 244.37H252.027L251.296 246.465L252.027 248.559H250.734Z" fill="#734CF5"/>
<path d="M251.941 247.556C252.543 247.556 253.033 247.066 253.033 246.464C253.033 245.863 252.543 245.377 251.941 245.377L253.995 244.966L254.539 246.625L253.623 248.023L251.941 247.556Z" fill="#734CF5"/>
<path d="M251.766 244.37H254.186L255.394 246.464L254.186 248.559H251.766L250.559 246.464L251.766 244.37ZM252.974 247.556C253.576 247.556 254.066 247.066 254.066 246.464C254.066 245.863 253.576 245.377 252.974 245.377C252.372 245.377 251.887 245.863 251.887 246.464C251.886 247.066 252.372 247.556 252.974 247.556Z" fill="#263238"/>
<path d="M205.769 251.339H208.48C209.185 251.339 209.763 250.762 209.763 250.055C209.763 249.35 209.185 248.772 208.48 248.772H205.769C205.063 248.772 204.485 249.35 204.485 250.055C204.485 250.762 205.063 251.339 205.769 251.339Z" fill="#263238"/>
<path d="M201.438 248.918C202.108 247.498 203.73 246.857 205.064 247.485C206.396 248.113 206.934 249.773 206.265 251.193C205.596 252.613 203.973 253.254 202.64 252.626C201.306 251.998 200.769 250.337 201.438 248.918Z" fill="#734CF5"/>
<path d="M202.202 252.614L202.945 252.965L205.53 247.482L204.787 247.132L202.202 252.614Z" fill="#263238"/>
</svg>
